<?xml version="1.0" encoding="UTF-8"?>
<svg width="30px" height="31px" viewBox="0 0 30 31" version="1.1" xmlns="http://www.w3.org/2000/svg" xmlns:xlink="http://www.w3.org/1999/xlink">
    <title>draw_FILL0_wght400_GRAD0_opsz24</title>
    <defs>
        <linearGradient x1="32.4114627%" y1="68.6079545%" x2="95.6031629%" y2="1.75371503%" id="linearGradient-1">
            <stop stop-color="#FFD23F" offset="0%"></stop>
            <stop stop-color="#FFFFFF" offset="100%"></stop>
        </linearGradient>
    </defs>
    <g id="🖼-Design" stroke="none" stroke-width="1" fill="none" fill-rule="evenodd">
        <g id="Home" transform="translate(-992, -1019)" fill="url(#linearGradient-1)" fill-rule="nonzero">
            <g id="Group-19" transform="translate(942, 969)">
                <g id="draw_FILL0_wght400_GRAD0_opsz24" transform="translate(50, 50)">
                    <path d="M18.8571429,30.8571429 C18.3714286,30.8571429 17.9642857,30.6928571 17.6357143,30.3642857 C17.3071429,30.0357143 17.1428571,29.6285714 17.1428571,29.1428571 C17.1428571,28.6571429 17.3071429,28.25 17.6357143,27.9214286 C17.9642857,27.5928571 18.3714286,27.4285714 18.8571429,27.4285714 C20.2,27.4285714 21.3928571,27.1642857 22.4357143,26.6357143 C23.4785714,26.1071429 24,25.5142857 24,24.8571429 C24,24.4571429 23.8142857,24.0857143 23.4428571,23.7428571 C23.0714286,23.4 22.5571429,23.0857143 21.9,22.8 L24.4285714,20.2714286 C25.3428571,20.8142857 26.0714286,21.4571429 26.6142857,22.2 C27.1571429,22.9428571 27.4285714,23.8285714 27.4285714,24.8571429 C27.4285714,26.7428571 26.5285714,28.2142857 24.7285714,29.2714286 C22.9285714,30.3285714 20.9714286,30.8571429 18.8571429,30.8571429 Z M2.7,17.7428571 C1.87142857,17.2571429 1.21428571,16.6928571 0.728571429,16.05 C0.242857143,15.4071429 0,14.6285714 0,13.7142857 C0,12.5142857 0.442857143,11.5071429 1.32857143,10.6928571 C2.21428571,9.87857143 3.8,8.97142857 6.08571429,7.97142857 C7.88571429,7.14285714 9.03571429,6.56428571 9.53571429,6.23571429 C10.0357143,5.90714286 10.2857143,5.54285714 10.2857143,5.14285714 C10.2857143,4.68571429 10.0071429,4.28571429 9.45,3.94285714 C8.89285714,3.6 8.02857143,3.42857143 6.85714286,3.42857143 C6.14285714,3.42857143 5.54285714,3.51428571 5.05714286,3.68571429 C4.57142857,3.85714286 4.12857143,4.14285714 3.72857143,4.54285714 C3.41428571,4.85714286 3.02857143,5.04285714 2.57142857,5.1 C2.11428571,5.15714286 1.7,5.02857143 1.32857143,4.71428571 C0.957142857,4.42857143 0.742857143,4.05714286 0.685714286,3.6 C0.628571429,3.14285714 0.757142857,2.72857143 1.07142857,2.35714286 C1.61428571,1.7 2.39285714,1.14285714 3.40714286,0.685714286 C4.42142857,0.228571429 5.57142857,0 6.85714286,0 C8.91428571,0 10.5714286,0.464285714 11.8285714,1.39285714 C13.0857143,2.32142857 13.7142857,3.57142857 13.7142857,5.14285714 C13.7142857,6.25714286 13.3,7.25714286 12.4714286,8.14285714 C11.6428571,9.02857143 9.97142857,10.0142857 7.45714286,11.1 C5.8,11.8142857 4.71428571,12.3428571 4.2,12.6857143 C3.68571429,13.0285714 3.42857143,13.3714286 3.42857143,13.7142857 C3.42857143,13.9714286 3.59285714,14.2214286 3.92142857,14.4642857 C4.25,14.7071429 4.7,14.9428571 5.27142857,15.1714286 L2.7,17.7428571 Z M27.1714286,12.6857143 L19.8857143,5.4 L21.6857143,3.6 C22.3714286,2.91428571 23.1928571,2.57142857 24.15,2.57142857 C25.1071429,2.57142857 25.9142857,2.91428571 26.5714286,3.6 L28.9714286,6 C29.6571429,6.65714286 30,7.46428571 30,8.42142857 C30,9.37857143 29.6571429,10.2 28.9714286,10.8857143 L27.1714286,12.6857143 Z M5.14285714,27.4285714 L7.54285714,27.4285714 L19.8857143,15.0857143 L17.4857143,12.6857143 L5.14285714,25.0285714 L5.14285714,27.4285714 Z M1.71428571,30.8571429 L1.71428571,23.5714286 L17.4857143,7.8 L24.7714286,15.0857143 L9,30.8571429 L1.71428571,30.8571429 Z M17.4857143,12.6857143 L19.8857143,15.0857143 L17.4857143,12.6857143 Z" id="Shape"></path>
                </g>
            </g>
        </g>
    </g>
</svg>